<!-- OG Image 1200x630 — exportar para PNG antes do deploy -->
<svg xmlns="http://www.w3.org/2000/svg" viewBox="0 0 1200 630" fill="none">
  <!-- Fundo -->
  <rect width="1200" height="630" fill="#4e6f4c"/>
  <!-- Blob decorativo -->
  <path d="M900,50 C1050,50 1180,160 1190,300 C1200,440 1110,560 970,600 C830,640 680,570 640,430 C600,290 670,140 790,80 C826,62 863,50 900,50Z" fill="#c1d18a" opacity="0.2"/>
  <path d="M150,400 C220,400 280,440 300,500 C320,560 290,610 230,625 C170,640 100,610 75,560 C50,510 70,445 120,415 C130,407 140,400 150,400Z" fill="#c76679" opacity="0.25"/>
  <!-- Símbolo -->
  <circle cx="140" cy="315" r="80" fill="rgba(255,255,255,0.1)"/>
  <path d="M105,355 L105,275 L128,315 L140,290 L152,315 L175,275 L175,355" stroke="#ffffff" stroke-width="8" stroke-linecap="round" stroke-linejoin="round" fill="none"/>
  <!-- Textos -->
  <text x="255" y="275" font-family="Poppins, sans-serif" font-size="56" font-weight="700" fill="#ffffff">Mariana Gouvêa</text>
  <text x="255" y="335" font-family="Poppins, sans-serif" font-size="28" font-weight="400" fill="rgba(255,255,255,0.8)">Psicóloga Infantojuvenil · CRP 07/41781</text>
  <text x="255" y="395" font-family="Poppins, sans-serif" font-size="22" font-weight="400" fill="rgba(255,255,255,0.65)">Atendimento online em todo o Brasil</text>
  <!-- Linha decorativa -->
  <rect x="255" y="415" width="80" height="4" rx="2" fill="#c76679"/>
</svg>
